<?xml version="1.0" encoding="UTF-8" ?>
<svg version="1.1" width="56" height="56" xmlns="http://www.w3.org/2000/svg" shape-rendering="crispEdges">
<rect x="24" y="32" width="1" height="1" fill="#000000" />
<rect x="25" y="32" width="1" height="1" fill="#49566D" />
<rect x="26" y="32" width="1" height="1" fill="#566580" />
<rect x="24" y="33" width="1" height="1" fill="#000000" />
<rect x="25" y="33" width="1" height="1" fill="#49566D" />
<rect x="26" y="33" width="1" height="1" fill="#566580" />
<rect x="27" y="33" width="1" height="1" fill="#627392" />
<rect x="28" y="33" width="1" height="1" fill="#627392" />
<rect x="29" y="33" width="1" height="1" fill="#627392" />
<rect x="30" y="33" width="1" height="1" fill="#627392" />
<rect x="31" y="33" width="1" height="1" fill="#7A90B6" />
<rect x="32" y="33" width="1" height="1" fill="#000000" />
<rect x="23" y="34" width="1" height="1" fill="#000000" />
<rect x="24" y="34" width="1" height="1" fill="#49566D" />
<rect x="25" y="34" width="1" height="1" fill="#566580" />
<rect x="26" y="34" width="1" height="1" fill="#566580" />
<rect x="27" y="34" width="1" height="1" fill="#627392" />
<rect x="28" y="34" width="1" height="1" fill="#627392" />
<rect x="29" y="34" width="1" height="1" fill="#627392" />
<rect x="30" y="34" width="1" height="1" fill="#627392" />
<rect x="31" y="34" width="1" height="1" fill="#7A90B6" />
<rect x="32" y="34" width="1" height="1" fill="#000000" />
<rect x="23" y="35" width="1" height="1" fill="#000000" />
<rect x="24" y="35" width="1" height="1" fill="#49566D" />
<rect x="25" y="35" width="1" height="1" fill="#566580" />
<rect x="26" y="35" width="1" height="1" fill="#627392" />
<rect x="27" y="35" width="1" height="1" fill="#627392" />
<rect x="28" y="35" width="1" height="1" fill="#000000" />
<rect x="29" y="35" width="1" height="1" fill="#627392" />
<rect x="30" y="35" width="1" height="1" fill="#627392" />
<rect x="31" y="35" width="1" height="1" fill="#7A90B6" />
<rect x="32" y="35" width="1" height="1" fill="#7A90B6" />
<rect x="33" y="35" width="1" height="1" fill="#000000" />
<rect x="23" y="36" width="1" height="1" fill="#000000" />
<rect x="24" y="36" width="1" height="1" fill="#49566D" />
<rect x="25" y="36" width="1" height="1" fill="#566580" />
<rect x="26" y="36" width="1" height="1" fill="#627392" />
<rect x="27" y="36" width="1" height="1" fill="#000000" />
<rect x="29" y="36" width="1" height="1" fill="#000000" />
<rect x="30" y="36" width="1" height="1" fill="#627392" />
<rect x="31" y="36" width="1" height="1" fill="#627392" />
<rect x="32" y="36" width="1" height="1" fill="#7A90B6" />
<rect x="33" y="36" width="1" height="1" fill="#000000" />
<rect x="23" y="37" width="1" height="1" fill="#000000" />
<rect x="24" y="37" width="1" height="1" fill="#49566D" />
<rect x="25" y="37" width="1" height="1" fill="#566580" />
<rect x="26" y="37" width="1" height="1" fill="#627392" />
<rect x="27" y="37" width="1" height="1" fill="#000000" />
<rect x="30" y="37" width="1" height="1" fill="#000000" />
<rect x="31" y="37" width="1" height="1" fill="#627392" />
<rect x="32" y="37" width="1" height="1" fill="#7A90B6" />
<rect x="33" y="37" width="1" height="1" fill="#000000" />
<rect x="23" y="38" width="1" height="1" fill="#000000" />
<rect x="24" y="38" width="1" height="1" fill="#49566D" />
<rect x="25" y="38" width="1" height="1" fill="#566580" />
<rect x="26" y="38" width="1" height="1" fill="#627392" />
<rect x="27" y="38" width="1" height="1" fill="#000000" />
<rect x="30" y="38" width="1" height="1" fill="#000000" />
<rect x="31" y="38" width="1" height="1" fill="#49566D" />
<rect x="32" y="38" width="1" height="1" fill="#627392" />
<rect x="33" y="38" width="1" height="1" fill="#000000" />
<rect x="23" y="39" width="1" height="1" fill="#000000" />
<rect x="24" y="39" width="1" height="1" fill="#49566D" />
<rect x="25" y="39" width="1" height="1" fill="#627392" />
<rect x="26" y="39" width="1" height="1" fill="#000000" />
<rect x="30" y="39" width="1" height="1" fill="#000000" />
<rect x="31" y="39" width="1" height="1" fill="#49566D" />
<rect x="32" y="39" width="1" height="1" fill="#566580" />
<rect x="33" y="39" width="1" height="1" fill="#000000" />
<rect x="23" y="40" width="1" height="1" fill="#000000" />
<rect x="24" y="40" width="1" height="1" fill="#566580" />
<rect x="25" y="40" width="1" height="1" fill="#627392" />
<rect x="26" y="40" width="1" height="1" fill="#000000" />
<rect x="31" y="40" width="1" height="1" fill="#000000" />
<rect x="32" y="40" width="1" height="1" fill="#566580" />
<rect x="33" y="40" width="1" height="1" fill="#000000" />
<rect x="22" y="41" width="1" height="1" fill="#000000" />
<rect x="23" y="41" width="1" height="1" fill="#49566D" />
<rect x="24" y="41" width="1" height="1" fill="#566580" />
<rect x="25" y="41" width="1" height="1" fill="#000000" />
<rect x="31" y="41" width="1" height="1" fill="#000000" />
<rect x="32" y="41" width="1" height="1" fill="#566580" />
<rect x="33" y="41" width="1" height="1" fill="#000000" />
<rect x="22" y="42" width="1" height="1" fill="#000000" />
<rect x="23" y="42" width="1" height="1" fill="#49566D" />
<rect x="24" y="42" width="1" height="1" fill="#566580" />
<rect x="25" y="42" width="1" height="1" fill="#000000" />
<rect x="30" y="42" width="1" height="1" fill="#000000" />
<rect x="31" y="42" width="1" height="1" fill="#556789" />
<rect x="32" y="42" width="1" height="1" fill="#627392" />
<rect x="33" y="42" width="1" height="1" fill="#000000" />
<rect x="21" y="43" width="1" height="1" fill="#000000" />
<rect x="22" y="43" width="1" height="1" fill="#49566D" />
<rect x="23" y="43" width="1" height="1" fill="#566580" />
<rect x="24" y="43" width="1" height="1" fill="#627392" />
<rect x="25" y="43" width="1" height="1" fill="#000000" />
<rect x="30" y="43" width="1" height="1" fill="#000000" />
<rect x="31" y="43" width="1" height="1" fill="#556789" />
<rect x="32" y="43" width="1" height="1" fill="#627392" />
<rect x="33" y="43" width="1" height="1" fill="#000000" />
<rect x="21" y="44" width="1" height="1" fill="#000000" />
<rect x="22" y="44" width="1" height="1" fill="#49566D" />
<rect x="23" y="44" width="1" height="1" fill="#566580" />
<rect x="24" y="44" width="1" height="1" fill="#000000" />
<rect x="30" y="44" width="1" height="1" fill="#000000" />
<rect x="31" y="44" width="1" height="1" fill="#49566D" />
<rect x="32" y="44" width="1" height="1" fill="#627392" />
<rect x="33" y="44" width="1" height="1" fill="#000000" />
<rect x="21" y="45" width="1" height="1" fill="#000000" />
<rect x="22" y="45" width="1" height="1" fill="#49566D" />
<rect x="23" y="45" width="1" height="1" fill="#627392" />
<rect x="24" y="45" width="1" height="1" fill="#000000" />
<rect x="30" y="45" width="1" height="1" fill="#000000" />
<rect x="31" y="45" width="1" height="1" fill="#49566D" />
<rect x="32" y="45" width="1" height="1" fill="#627392" />
<rect x="33" y="45" width="1" height="1" fill="#000000" />
<rect x="21" y="46" width="1" height="1" fill="#000000" />
<rect x="22" y="46" width="1" height="1" fill="#566580" />
<rect x="23" y="46" width="1" height="1" fill="#627392" />
<rect x="24" y="46" width="1" height="1" fill="#000000" />
<rect x="31" y="46" width="1" height="1" fill="#000000" />
<rect x="32" y="46" width="1" height="1" fill="#627392" />
<rect x="33" y="46" width="1" height="1" fill="#000000" />
<rect x="21" y="47" width="1" height="1" fill="#000000" />
<rect x="22" y="47" width="1" height="1" fill="#627392" />
<rect x="23" y="47" width="1" height="1" fill="#000000" />
<rect x="31" y="47" width="1" height="1" fill="#000000" />
<rect x="32" y="47" width="1" height="1" fill="#627392" />
<rect x="33" y="47" width="1" height="1" fill="#000000" />
<rect x="21" y="48" width="1" height="1" fill="#000000" />
<rect x="22" y="48" width="1" height="1" fill="#15141B" />
<rect x="23" y="48" width="1" height="1" fill="#000000" />
<rect x="31" y="48" width="1" height="1" fill="#000000" />
<rect x="32" y="48" width="1" height="1" fill="#15141B" />
<rect x="33" y="48" width="1" height="1" fill="#000000" />
<rect x="20" y="49" width="1" height="1" fill="#000000" />
<rect x="21" y="49" width="1" height="1" fill="#15141B" />
<rect x="22" y="49" width="1" height="1" fill="#15141B" />
<rect x="23" y="49" width="1" height="1" fill="#000000" />
<rect x="31" y="49" width="1" height="1" fill="#000000" />
<rect x="32" y="49" width="1" height="1" fill="#15141B" />
<rect x="33" y="49" width="1" height="1" fill="#15141B" />
<rect x="34" y="49" width="1" height="1" fill="#000000" />
<rect x="35" y="49" width="1" height="1" fill="#000000" />
<rect x="19" y="50" width="1" height="1" fill="#000000" />
<rect x="20" y="50" width="1" height="1" fill="#15141B" />
<rect x="21" y="50" width="1" height="1" fill="#15141B" />
<rect x="22" y="50" width="1" height="1" fill="#15141B" />
<rect x="23" y="50" width="1" height="1" fill="#000000" />
<rect x="31" y="50" width="1" height="1" fill="#000000" />
<rect x="32" y="50" width="1" height="1" fill="#15141B" />
<rect x="33" y="50" width="1" height="1" fill="#15141B" />
<rect x="34" y="50" width="1" height="1" fill="#15141B" />
<rect x="35" y="50" width="1" height="1" fill="#15141B" />
<rect x="36" y="50" width="1" height="1" fill="#000000" />
<rect x="19" y="51" width="1" height="1" fill="#000000" />
<rect x="20" y="51" width="1" height="1" fill="#000000" />
<rect x="21" y="51" width="1" height="1" fill="#000000" />
<rect x="22" y="51" width="1" height="1" fill="#000000" />
<rect x="23" y="51" width="1" height="1" fill="#000000" />
<rect x="31" y="51" width="1" height="1" fill="#000000" />
<rect x="32" y="51" width="1" height="1" fill="#000000" />
<rect x="33" y="51" width="1" height="1" fill="#000000" />
<rect x="34" y="51" width="1" height="1" fill="#000000" />
<rect x="35" y="51" width="1" height="1" fill="#000000" />
<rect x="36" y="51" width="1" height="1" fill="#000000" />
</svg>